<svg id="Layer_1" enable-background="new 0 0 512 512" height="512" viewBox="0 0 512 512" width="512" xmlns="http://www.w3.org/2000/svg"><g><g fill="#ff9400"><path d="m106.642 337.189-22.722-22.718c-5.858-5.857-5.859-15.354-.002-21.213 5.857-5.858 15.355-5.86 21.213-.002l22.723 22.718c5.858 5.857 5.859 15.354.002 21.213-5.858 5.859-15.357 5.859-21.214.002z"/><path d="m152.083 291.75-22.722-22.726c-5.857-5.858-5.856-15.356.002-21.213 5.858-5.858 15.356-5.857 21.213.002l22.722 22.726c5.857 5.858 5.856 15.356-.002 21.213-5.858 5.858-15.357 5.857-21.213-.002z"/><path d="m197.527 246.306-22.722-22.727c-5.857-5.858-5.856-15.356.002-21.213 5.859-5.857 15.355-5.856 21.213.002l22.722 22.727c5.857 5.858 5.856 15.356-.002 21.213-5.86 5.858-15.357 5.855-21.213-.002z"/></g><path d="m484.885 163.446-159.053-159.052c-5.085-5.085-13.061-5.846-19.016-1.814-5.954 4.031-8.209 11.72-5.377 18.33 23.534 54.916-2.351 102.621-23.917 124.188l-193.601 193.602c-31.011 31.005-30.958 81.13 0 112.106l22.721 22.716c18.379 18.378 48.28 18.374 66.656 0 .002-.002.003-.003.005-.005l159.046-159.047c18.438-18.438 18.406-48.255 0-66.658-4.277-4.277-9.172-7.547-14.39-9.836l26.221-26.22c21.649-21.651 69.324-47.433 124.189-23.916 6.607 2.833 14.299.577 18.331-5.377 4.03-5.955 3.27-13.932-1.815-19.017zm-173.748 105.58c6.701 6.699 6.69 17.539-.001 24.23l-159.047 159.047c-.002.002-.003.003-.005.005-.021.021-.042.042-.063.063l-.075.073c-6.692 6.544-17.459 6.498-24.092-.136-6.7-6.7-6.691-17.539 0-24.231l159.071-159.069c6.701-6.679 17.533-6.66 24.212.018z" fill="#ffdf5a"/><path d="m405.357 83.919-339.352 339.353c3.866 10.029 9.825 19.438 17.916 27.534 7.891 7.888 15.781 15.775 22.721 22.716 18.379 18.378 48.28 18.374 66.656 0 .002-.002.003-.003.005-.005l159.046-159.047c18.438-18.438 18.406-48.255 0-66.658-4.277-4.277-9.172-7.547-14.39-9.836l26.221-26.22c21.649-21.651 69.324-47.433 124.189-23.916 6.607 2.833 14.299.577 18.331-5.377 4.031-5.954 3.271-13.932-1.814-19.016zm-94.221 209.338-159.047 159.046c-.002.002-.003.003-.005.005-.021.021-.042.042-.063.063l-.075.073c-6.692 6.544-17.459 6.498-24.092-.136-6.7-6.7-6.691-17.539 0-24.231l159.071-159.069c6.7-6.679 17.532-6.66 24.211.018 6.702 6.7 6.691 17.54 0 24.231z" fill="#ffbc00"/><path d="m311.137 269.026c-6.685-6.685-17.532-6.699-24.23 0l-227.218 227.214c-5.848 5.847-15.345 5.868-21.213 0-5.857-5.858-5.857-15.355 0-21.213l227.217-227.214c18.399-18.397 48.22-18.435 66.656 0z" fill="#ff9400"/><path d="m48.329 463.668 22.722 22.726c5.857 5.858 5.856 15.356-.002 21.213-5.858 5.858-15.356 5.857-21.213-.002l-22.722-22.726c-5.857-5.858-5.856-15.356.002-21.213 5.858-5.858 15.357-5.856 21.213.002z" fill="#ffbc00"/></g></svg>